<svg width="960" height="720" viewBox="0 0 960 720" fill="none" xmlns="http://www.w3.org/2000/svg">
  <rect width="960" height="720" fill="#EAF5FF"/>
  <rect x="72" y="72" width="816" height="576" rx="36" fill="#F8FBFF"/>
  <path d="M112 534C218 442 291 420 410 458C513 491 597 493 710 420C774 379 831 366 888 376V648H72V574C84 563 97 550 112 534Z" fill="#C7E7FF"/>
  <rect x="170" y="162" width="390" height="250" rx="24" fill="#0F172A"/>
  <rect x="194" y="186" width="342" height="202" rx="14" fill="#38BDF8"/>
  <path d="M194 336L287 270L355 322L421 244L536 350V388H194V336Z" fill="#BAE6FD"/>
  <circle cx="432" cy="244" r="34" fill="#FDE68A"/>
  <rect x="618" y="188" width="176" height="300" rx="28" fill="#FFFFFF" stroke="#94A3B8" stroke-width="8"/>
  <rect x="641" y="230" width="130" height="198" rx="16" fill="#E0F2FE"/>
  <path d="M641 390L683 340L724 370L771 315V428H641V390Z" fill="#7DD3FC"/>
  <circle cx="706" cy="456" r="14" fill="#94A3B8"/>
  <rect x="251" y="456" width="256" height="72" rx="18" fill="#FFFFFF" stroke="#7DD3FC" stroke-width="6"/>
  <rect x="278" y="482" width="128" height="14" rx="7" fill="#38BDF8"/>
  <rect x="423" y="482" width="46" height="14" rx="7" fill="#F97316"/>
  <path d="M606 120L628 166L678 173L642 209L651 259L606 235L561 259L570 209L534 173L584 166L606 120Z" fill="#F97316"/>
</svg>
